<svg xmlns="http://www.w3.org/2000/svg" viewBox="0 0 50 50"><defs><style>.cls-1{fill:#396dc9;}.cls-2{fill:#fff;}</style></defs><title>footer1-tu-van</title><g id="Layer_2" data-name="Layer 2"><g id="Layer_1-2" data-name="Layer 1"><circle class="cls-1" cx="25" cy="25" r="25"/><path class="cls-2" d="M25,13.8a14.63,14.63,0,0,1,6.43,1.4A12,12,0,0,1,36.08,19,8.72,8.72,0,0,1,37.8,24.2a8.37,8.37,0,0,1-.75,3.5A10.81,10.81,0,0,1,35,30.75a10.59,10.59,0,0,0,1.6,3.3A11.52,11.52,0,0,0,37.7,35.5a.43.43,0,0,1,0,.45.34.34,0,0,1-.35.25,10.84,10.84,0,0,1-4.3-.9,13.64,13.64,0,0,1-2.75-1.65,15,15,0,0,1-5.35,1,14.63,14.63,0,0,1-6.43-1.4,12,12,0,0,1-4.65-3.77,8.81,8.81,0,0,1,0-10.46,12,12,0,0,1,4.65-3.77A14.63,14.63,0,0,1,25,13.8Zm6.4,12a1.56,1.56,0,0,0,1.13-.47,1.59,1.59,0,0,0,0-2.26,1.56,1.56,0,0,0-1.13-.47,1.6,1.6,0,0,0,0,3.2Zm-6.4,0a1.6,1.6,0,1,0-1.13-.47A1.58,1.58,0,0,0,25,25.8Zm-6.4,0a1.6,1.6,0,0,0,0-3.2,1.56,1.56,0,0,0-1.13.47,1.59,1.59,0,0,0,0,2.26A1.56,1.56,0,0,0,18.6,25.8Z"/></g></g></svg>