<svg xmlns="http://www.w3.org/2000/svg" viewBox="0 0 24 24"><defs><style>.cls-1{fill:none;opacity:0.85;}.cls-2{fill:#fff;}</style></defs><title>footer-gio-kham</title><g id="Layer_2" data-name="Layer 2"><g id="Layer_1-2" data-name="Layer 1"><rect class="cls-1" width="24" height="24"/><path class="cls-2" d="M17.68,2.17a11.62,11.62,0,0,1,4.15,4.15A11,11,0,0,1,23.36,12a11,11,0,0,1-1.53,5.68,11.62,11.62,0,0,1-4.15,4.15A11,11,0,0,1,12,23.36a11,11,0,0,1-5.68-1.53,11.62,11.62,0,0,1-4.15-4.15A11,11,0,0,1,.64,12,11,11,0,0,1,2.17,6.32,11.62,11.62,0,0,1,6.32,2.17,11,11,0,0,1,12,.64,11,11,0,0,1,17.68,2.17ZM15,16.76a.54.54,0,0,0,.37-.23l1.28-1.74a.59.59,0,0,0,.12-.41.52.52,0,0,0-.21-.36l-2.93-2.11V5.59a.51.51,0,0,0-.16-.39A.53.53,0,0,0,13.1,5H10.9a.53.53,0,0,0-.39.16.51.51,0,0,0-.16.39v7.69a.56.56,0,0,0,.23.46l4,2.93A.5.5,0,0,0,15,16.76Z"/></g></g></svg>