<svg xmlns="http://www.w3.org/2000/svg" viewBox="0 0 50 50"><defs><style>.cls-1{fill:#396dc9;}.cls-2{fill:#fff;}</style></defs><title>footer1-chi-duong</title><g id="Layer_2" data-name="Layer 2"><g id="Layer_1-2" data-name="Layer 1"><circle class="cls-1" cx="25" cy="25" r="25"/><path class="cls-2" d="M17.55,20.6A12.66,12.66,0,0,0,18.6,23V34.6l-6.9,3.15A.82.82,0,0,1,10.6,37V24.5a1.54,1.54,0,0,1,.27-.9,1.65,1.65,0,0,1,.73-.6ZM28.15,13a6.42,6.42,0,0,1,2.3,2.3,6.1,6.1,0,0,1,.85,3.15q0,1.86-2.25,5.26Q27.6,25.9,25.6,28.3a.75.75,0,0,1-1.2,0q-2-2.4-3.45-4.55-2.25-3.41-2.25-5.26a6.1,6.1,0,0,1,.85-3.15,6.34,6.34,0,0,1,2.3-2.3,6.26,6.26,0,0,1,6.3,0Zm-1.3,16.31q1.65-2,2.95-3.85V37.8l-9.6-3.2V25.5q1.31,1.84,2.95,3.85a2.44,2.44,0,0,0,3.7,0ZM26.48,20a2.06,2.06,0,0,0,0-2.95,2.05,2.05,0,0,0-3,0,2.06,2.06,0,0,0,0,2.95,2.05,2.05,0,0,0,3,0Zm12.57.38a.74.74,0,0,1,.35.65V33.5a1.59,1.59,0,0,1-.27.9,1.65,1.65,0,0,1-.73.6l-7,2.8V23.4l6.9-3.15A.75.75,0,0,1,39.05,20.35Z"/></g></g></svg>