<svg xmlns="http://www.w3.org/2000/svg" viewBox="0 0 24 24"><defs><style>.cls-1{fill:none;opacity:0.85;}.cls-2{fill:#fff;}</style></defs><title>footer-dia-chi</title><g id="Layer_2" data-name="Layer 2"><g id="Layer_1-2" data-name="Layer 1"><rect class="cls-1" width="24" height="24"/><path class="cls-2" d="M11.08,23.27Q9.9,21.53,8,18.87q-2.28-3.3-3-4.44a13.25,13.25,0,0,1-1.42-2.77,8.49,8.49,0,0,1-.36-2.59A8.45,8.45,0,0,1,4.4,4.67,9,9,0,0,1,7.6,1.46a8.73,8.73,0,0,1,8.8,0,9,9,0,0,1,3.2,3.21,8.45,8.45,0,0,1,1.19,4.4,8.49,8.49,0,0,1-.36,2.59A13.25,13.25,0,0,1,19,14.43q-.74,1.14-3,4.44l-3.07,4.4a1.15,1.15,0,0,1-1.84,0ZM12,12.73a3.56,3.56,0,0,0,2.59-1.07,3.52,3.52,0,0,0,1.07-2.59A3.67,3.67,0,0,0,12,5.4,3.67,3.67,0,0,0,8.34,9.07a3.52,3.52,0,0,0,1.07,2.59A3.56,3.56,0,0,0,12,12.73Z"/></g></g></svg>