<svg xmlns="http://www.w3.org/2000/svg" viewBox="0 0 24 24"><defs><style>.cls-1{fill:none;opacity:0.85;}.cls-2{fill:#fff;}</style></defs><title>footer-hotline</title><g id="Layer_2" data-name="Layer 2"><g id="Layer_1-2" data-name="Layer 1"><rect class="cls-1" width="24" height="24"/><path class="cls-2" d="M1.15,1.41,5.92.31A1,1,0,0,1,6.65.4a1,1,0,0,1,.5.51L9.35,6a1.16,1.16,0,0,1,.05.71A1.09,1.09,0,0,1,9,7.32L6.28,9.61A16.86,16.86,0,0,0,9.6,14.37a16.17,16.17,0,0,0,4.79,3.35L16.63,15a1,1,0,0,1,.6-.39,1.16,1.16,0,0,1,.69.07l5.13,2.2a1,1,0,0,1,.55.5,1,1,0,0,1,.09.73l-1.1,4.77a.85.85,0,0,1-.37.64,1.16,1.16,0,0,1-.68.23,20.83,20.83,0,0,1-10.72-2.89,21.25,21.25,0,0,1-7.65-7.65A20.83,20.83,0,0,1,.28,2.46a1.16,1.16,0,0,1,.23-.68A.85.85,0,0,1,1.15,1.41Z"/></g></g></svg>