<svg xmlns="http://www.w3.org/2000/svg" viewBox="0 0 50 50"><defs><style>.cls-1{fill:#396dc9;}.cls-2{fill:#fff;}</style></defs><title>footer1-hotline</title><g id="Layer_2" data-name="Layer 2"><g id="Layer_1-2" data-name="Layer 1"><circle class="cls-1" cx="25" cy="25" r="25"/><path class="cls-2" d="M13.15,13.44l5.21-1.2a1.22,1.22,0,0,1,1.35.65l2.4,5.6a1.28,1.28,0,0,1,.05.77,1.24,1.24,0,0,1-.4.63l-3,2.5a18.49,18.49,0,0,0,3.62,5.2,17.48,17.48,0,0,0,5.23,3.65l2.45-3a1,1,0,0,1,.65-.42,1.26,1.26,0,0,1,.75.07l5.6,2.4a1.17,1.17,0,0,1,.7,1.35l-1.2,5.21a.92.92,0,0,1-.4.7,1.3,1.3,0,0,1-.75.25,22.73,22.73,0,0,1-11.7-3.16,23.21,23.21,0,0,1-8.35-8.35,22.73,22.73,0,0,1-3.16-11.7,1.3,1.3,0,0,1,.25-.75A1,1,0,0,1,13.15,13.44Z"/></g></g></svg>