<svg xmlns="http://www.w3.org/2000/svg" viewBox="0 0 50 50"><defs><style>.cls-1{fill:#396dc9;}.cls-2{fill:#fff;}</style></defs><title>footer1-dat-hen</title><g id="Layer_2" data-name="Layer 2"><g id="Layer_1-2" data-name="Layer 1"><circle class="cls-1" cx="25" cy="25" r="25"/><path class="cls-2" d="M35.6,20.2H14.4A.58.58,0,0,1,14,20a.54.54,0,0,1-.17-.42V17.8a2.39,2.39,0,0,1,2.4-2.4h2.4V12.8a.61.61,0,0,1,.17-.43.57.57,0,0,1,.43-.17h2a.54.54,0,0,1,.42.17.58.58,0,0,1,.18.43v2.6h6.4V12.8a.58.58,0,0,1,.18-.43.54.54,0,0,1,.42-.17h2a.57.57,0,0,1,.43.17.61.61,0,0,1,.17.43v2.6h2.4a2.39,2.39,0,0,1,2.4,2.4v1.8A.54.54,0,0,1,36,20,.58.58,0,0,1,35.6,20.2ZM14.4,21.8H35.6A.61.61,0,0,1,36,22a.57.57,0,0,1,.17.43v13a2.39,2.39,0,0,1-2.4,2.4H16.2a2.39,2.39,0,0,1-2.4-2.4v-13A.57.57,0,0,1,14,22,.61.61,0,0,1,14.4,21.8Zm16.65,4.8-1.4-1.4a.48.48,0,0,0-.4-.2.72.72,0,0,0-.45.15l-5.3,5.3L21.2,28.1a.54.54,0,0,0-.4-.15.72.72,0,0,0-.45.15L19,29.5a.59.59,0,0,0-.2.45.46.46,0,0,0,.2.4l4.1,4.2a.72.72,0,0,0,.45.15.54.54,0,0,0,.4-.15l7.15-7.1a.62.62,0,0,0,.2-.45A.48.48,0,0,0,31.05,26.6Z"/></g></g></svg>