<svg xmlns="http://www.w3.org/2000/svg" xmlns:xlink="http://www.w3.org/1999/xlink" viewBox="0 0 75 75"><defs><style>.cls-1{fill:url(#linear-gradient);}.cls-2{fill:none;}</style><linearGradient id="linear-gradient" x1="37.5" y1="67.5" x2="37.5" y2="7.5" gradientUnits="userSpaceOnUse"><stop offset="0" stop-color="#2c4ac8"/><stop offset="1" stop-color="#1dbbff"/></linearGradient></defs><title>uu-diem-2</title><g id="Layer_2" data-name="Layer 2"><g id="Layer_1-2" data-name="Layer 1"><path class="cls-1" d="M65.86,61.64a5.43,5.43,0,0,1,1.64,4,1.81,1.81,0,0,1-1.87,1.87H9.38A1.81,1.81,0,0,1,7.5,65.63,5.6,5.6,0,0,1,13.13,60H45a14.88,14.88,0,0,0,7.56-2A14.69,14.69,0,0,0,58,52.56a15.36,15.36,0,0,0,0-15.12A14.69,14.69,0,0,0,52.56,32,15,15,0,0,0,45,30V22.5a21.74,21.74,0,0,1,11.25,3.05,22.85,22.85,0,0,1,8.2,8.2A21.74,21.74,0,0,1,67.5,45,22,22,0,0,1,66,53.09,23.46,23.46,0,0,1,61.76,60h.12A5.44,5.44,0,0,1,65.86,61.64ZM19,56a.92.92,0,0,1-.29-.65V53.44a1,1,0,0,1,.94-.94H44.06a1,1,0,0,1,.94.94v1.87a1,1,0,0,1-.94.94H19.69A.92.92,0,0,1,19,56Zm4.57-12.07a3.61,3.61,0,0,1-1.11-2.64V15a3.79,3.79,0,0,1,3.75-3.75V9.38A1.81,1.81,0,0,1,28.13,7.5h7.5A1.81,1.81,0,0,1,37.5,9.38v1.87A3.79,3.79,0,0,1,41.25,15V41.25A3.79,3.79,0,0,1,37.5,45H36.09v1.88a1.82,1.82,0,0,1-.52,1.34,1.86,1.86,0,0,1-1.35.53H29.53a1.85,1.85,0,0,1-1.35-.53,1.82,1.82,0,0,1-.52-1.34V45H26.25A3.61,3.61,0,0,1,23.61,43.89Z"/><rect class="cls-2" width="75" height="75"/></g></g></svg>