<svg xmlns="http://www.w3.org/2000/svg" xmlns:xlink="http://www.w3.org/1999/xlink" viewBox="0 0 75 75"><defs><style>.cls-1{fill:url(#linear-gradient);}.cls-2{fill:none;}</style><linearGradient id="linear-gradient" x1="37.5" y1="63.75" x2="37.5" y2="11.25" gradientUnits="userSpaceOnUse"><stop offset="0" stop-color="#2c4ac8"/><stop offset="1" stop-color="#1dbbff"/></linearGradient></defs><title>uu-diem-4</title><g id="Layer_2" data-name="Layer 2"><g id="Layer_1-2" data-name="Layer 1"><path class="cls-1" d="M74.41,15.23A3.92,3.92,0,0,1,75,17.34V54.49a3.57,3.57,0,0,1-1.11,2.7,3.74,3.74,0,0,1-2.64,1.05A4,4,0,0,1,70,58a36.91,36.91,0,0,0-10.78-1.53,65,65,0,0,0-10.9,1.06q-3.51.7-10.78,2.52T26.72,62.58a58.48,58.48,0,0,1-10.9,1.17A35.08,35.08,0,0,1,2.23,61.17a3.58,3.58,0,0,1-1.64-1.4A3.84,3.84,0,0,1,0,57.66V20.51a3.58,3.58,0,0,1,1.11-2.7,3.71,3.71,0,0,1,2.64-1A4.29,4.29,0,0,1,5,17a36.91,36.91,0,0,0,10.78,1.53,65,65,0,0,0,10.9-1.06q3.51-.71,10.78-2.52t10.78-2.52a58.48,58.48,0,0,1,10.9-1.17,35.08,35.08,0,0,1,13.59,2.58A3.58,3.58,0,0,1,74.41,15.23ZM5.63,30.12a7.09,7.09,0,0,0,4.74-1.76A7.87,7.87,0,0,0,13,24,37.28,37.28,0,0,1,5.63,23ZM13.13,58a7.39,7.39,0,0,0-2.29-5.16,7.23,7.23,0,0,0-5.21-2.11v5.63A29.26,29.26,0,0,0,13.13,58Zm31-12.54a12,12,0,0,0,2.76-8,12,12,0,0,0-2.76-8,8.32,8.32,0,0,0-13.24,0,12,12,0,0,0-2.75,8,12,12,0,0,0,2.75,8,8.32,8.32,0,0,0,13.24,0ZM69.38,18.63a25.13,25.13,0,0,0-6.57-1.52,7.44,7.44,0,0,0,2,4.86,7.34,7.34,0,0,0,4.58,2.41Zm0,26.6a7.75,7.75,0,0,0-4.11,1.94A6.9,6.9,0,0,0,63.05,51,40.46,40.46,0,0,1,69.38,52Z"/><rect class="cls-2" width="75" height="75"/></g></g></svg>