<svg xmlns="http://www.w3.org/2000/svg" xmlns:xlink="http://www.w3.org/1999/xlink" viewBox="0 0 75 75"><defs><style>.cls-1{fill:url(#linear-gradient);}.cls-2{fill:none;}</style><linearGradient id="linear-gradient" x1="37.5" y1="67.5" x2="37.5" y2="7.5" gradientUnits="userSpaceOnUse"><stop offset="0" stop-color="#2c4ac8"/><stop offset="1" stop-color="#1dbbff"/></linearGradient></defs><title>uu-diem-1</title><g id="Layer_2" data-name="Layer 2"><g id="Layer_1-2" data-name="Layer 1"><path class="cls-1" d="M56.31,43.65a15.89,15.89,0,0,1,5.45,5.69,15.15,15.15,0,0,1,2,7.61v5.28a5.19,5.19,0,0,1-5.27,5.27h-42a5.19,5.19,0,0,1-5.27-5.27V57A15.15,15.15,0,0,1,15,46.82a15.33,15.33,0,0,1,9.38-5.34V51A6.5,6.5,0,0,0,21,53.26a6.15,6.15,0,0,0-1.35,3.93,6.59,6.59,0,0,0,6.56,6.56A6.51,6.51,0,0,0,28.13,51V41.37a27.17,27.17,0,0,1,2.69.58A19.84,19.84,0,0,0,44.3,42l.7-.23v5.39a8.77,8.77,0,0,0-5.39,3.16,9.16,9.16,0,0,0-2.11,6v5.16A1.8,1.8,0,0,0,38,62.64a2,2,0,0,0,1.17.64l3.63.47a.77.77,0,0,0,.71-.12,1.14,1.14,0,0,0,.47-.58l.35-1.88a1.52,1.52,0,0,0-.18-.7.91.91,0,0,0-.64-.47l-2.23-.35V56.48a5.64,5.64,0,0,1,1.64-4.33,5.54,5.54,0,0,1,3.93-1.52,5.75,5.75,0,0,1,4,1.52,5.25,5.25,0,0,1,1.7,4.1v3.28L50.27,60a.91.91,0,0,0-.64.47,1.52,1.52,0,0,0-.18.7l.47,1.76a.65.65,0,0,0,.35.64,1.56,1.56,0,0,0,.71.18l3.75-.82a1.7,1.7,0,0,0,1.11-.64,1.84,1.84,0,0,0,.41-1.12V56.25a9.16,9.16,0,0,0-2.11-6,8.77,8.77,0,0,0-5.39-3.16V41.37A14.87,14.87,0,0,1,56.31,43.65ZM29.94,35.51a14.69,14.69,0,0,1-5.45-5.45,14.86,14.86,0,0,1-2-7.56,14.88,14.88,0,0,1,2-7.56,14.69,14.69,0,0,1,5.45-5.45,15.36,15.36,0,0,1,15.12,0,14.69,14.69,0,0,1,5.45,5.45,14.88,14.88,0,0,1,2,7.56,14.86,14.86,0,0,1-2,7.56,14.69,14.69,0,0,1-5.45,5.45,15.36,15.36,0,0,1-15.12,0ZM24.26,55.2a2.82,2.82,0,1,1-.82,2A2.69,2.69,0,0,1,24.26,55.2Z"/><rect class="cls-2" width="75" height="75"/></g></g></svg>