<svg xmlns="http://www.w3.org/2000/svg" xmlns:xlink="http://www.w3.org/1999/xlink" viewBox="0 0 75 75"><defs><style>.cls-1{fill:url(#linear-gradient);}.cls-2{fill:none;}</style><linearGradient id="linear-gradient" x1="37.5" y1="67.49" x2="37.5" y2="7.51" gradientUnits="userSpaceOnUse"><stop offset="0" stop-color="#2c4ac8"/><stop offset="1" stop-color="#1dbbff"/></linearGradient></defs><title>uu-diem-3</title><g id="Layer_2" data-name="Layer 2"><g id="Layer_1-2" data-name="Layer 1"><path class="cls-1" d="M71.28,48.85a3.51,3.51,0,0,1-1.47,2.82L52.12,65.85a7.49,7.49,0,0,1-4.69,1.64H5.59a1.81,1.81,0,0,1-1.87-1.88V54.36A1.86,1.86,0,0,1,4.25,53a1.82,1.82,0,0,1,1.34-.52H12L17.55,48a13.35,13.35,0,0,1,8.67-3H45a3.55,3.55,0,0,1,2.87,1.35,3.67,3.67,0,0,1,.88,3,3.52,3.52,0,0,1-1.41,2.29,4.23,4.23,0,0,1-2.57.88H35.59a1.82,1.82,0,0,0-1.34.52,1.86,1.86,0,0,0-.53,1.35,1.81,1.81,0,0,0,1.87,1.88H49.42a7.17,7.17,0,0,0,4.69-1.64L65,45.93A3.63,3.63,0,0,1,67.53,45a3.25,3.25,0,0,1,2.4.94A3.47,3.47,0,0,1,71.28,48.85ZM23.17,23.43a9.5,9.5,0,0,1-2.52-7.09,9.3,9.3,0,0,1,3.23-6.86,8.38,8.38,0,0,1,6.27-1.93,9.07,9.07,0,0,1,6,2.87l1.29,1.4,1.29-1.4a9.47,9.47,0,0,1,6.09-2.87,8.29,8.29,0,0,1,6.21,1.93,9.13,9.13,0,0,1,3.34,6.86,9.28,9.28,0,0,1-2.63,7.09L39,36.78a2,2,0,0,1-3,0Z"/><rect class="cls-2" width="75" height="75"/></g></g></svg>