<svg xmlns="http://www.w3.org/2000/svg" viewBox="0 0 55 55"><defs><style>.cls-1{fill:#1ecca9;}</style></defs><title>cam-nhan-ava</title><g id="Layer_2" data-name="Layer 2"><g id="Layer_1-2" data-name="Layer 1"><path class="cls-1" d="M55,27.5A27.5,27.5,0,1,1,27.5,0,27.5,27.5,0,0,1,55,27.5ZM43.74,41.23A12.34,12.34,0,0,0,32.82,34.6a2.59,2.59,0,0,0-.78.12,14.8,14.8,0,0,1-4.54.76A14.9,14.9,0,0,1,23,34.72a2.59,2.59,0,0,0-.78-.12,12.34,12.34,0,0,0-10.92,6.63,21.22,21.22,0,0,0,32.48,0Zm-26-20.83a9.76,9.76,0,1,0,9.76-9.75A9.76,9.76,0,0,0,17.74,20.4Z"/></g></g></svg>