<svg xmlns="http://www.w3.org/2000/svg" viewBox="0 0 23.63 15.75"><defs><style>.cls-1{fill:#1ecca9;}</style></defs><title>bv-noi-bat</title><g id="Layer_2" data-name="Layer 2"><g id="Layer_1-2" data-name="Layer 1"><path class="cls-1" d="M23.34.29a.94.94,0,0,1,.29.69V14.77a.94.94,0,0,1-.29.69,1,1,0,0,1-.7.29H2a1.95,1.95,0,0,1-2-2V2.3a1,1,0,0,1,.29-.7A.94.94,0,0,1,1,1.31H2.63V1A.94.94,0,0,1,2.91.29,1,1,0,0,1,3.61,0h19A1,1,0,0,1,23.34.29ZM1.5,14.25a.61.61,0,0,0,.47.19.61.61,0,0,0,.47-.19.65.65,0,0,0,.19-.47V2.63H1.31V13.78A.61.61,0,0,0,1.5,14.25ZM22.31,1.31H3.94V13.78a1.72,1.72,0,0,1-.13.66h18.5Zm-16.92,9A.52.52,0,0,1,5.25,10V3.12a.48.48,0,0,1,.14-.35.46.46,0,0,1,.35-.14h6.89a.45.45,0,0,1,.35.14.45.45,0,0,1,.15.35V10a.5.5,0,0,1-.5.49H5.74A.5.5,0,0,1,5.39,10.36Zm0,2.62a.47.47,0,0,0,.35.15h6.89a.51.51,0,0,0,.5-.5V12.3A.45.45,0,0,0,13,12a.45.45,0,0,0-.35-.15H5.74a.47.47,0,0,0-.35.15.48.48,0,0,0-.14.34v.33A.48.48,0,0,0,5.39,13ZM6.56,9.19h5.25V3.94H6.56Zm8-4.08a.5.5,0,0,0,.35.14h5.58A.48.48,0,0,0,21,4.76V4.43a.5.5,0,0,0-.14-.35.52.52,0,0,0-.35-.14H14.93a.5.5,0,0,0-.35.14.46.46,0,0,0-.14.35v.33A.47.47,0,0,0,14.58,5.11Zm0,2.62a.47.47,0,0,0,.35.15h5.58a.5.5,0,0,0,.49-.5V7.05a.48.48,0,0,0-.14-.34.49.49,0,0,0-.35-.15H14.93a.47.47,0,0,0-.35.15.44.44,0,0,0-.14.34v.33A.45.45,0,0,0,14.58,7.73Zm0,2.63a.5.5,0,0,0,.35.14h5.58A.48.48,0,0,0,21,10V9.68a.5.5,0,0,0-.14-.35.52.52,0,0,0-.35-.14H14.93a.5.5,0,0,0-.35.14.46.46,0,0,0-.14.35V10A.47.47,0,0,0,14.58,10.36Zm0,2.62a.47.47,0,0,0,.35.15h5.58a.5.5,0,0,0,.49-.5V12.3a.48.48,0,0,0-.14-.34.49.49,0,0,0-.35-.15H14.93a.47.47,0,0,0-.35.15.44.44,0,0,0-.14.34v.33A.45.45,0,0,0,14.58,13Z"/></g></g></svg>