<svg xmlns="http://www.w3.org/2000/svg" viewBox="0 0 35.19 37.18"><defs><style>.cls-1{fill:#3a7ce2;}</style></defs><title>header-dia-chi</title><g id="Layer_2" data-name="Layer 2"><g id="Layer_1-2" data-name="Layer 1"><path class="cls-1" d="M17.6,6.4a5.22,5.22,0,1,1-5.22,5.22A5.22,5.22,0,0,1,17.6,6.4M17.6,5a6.67,6.67,0,1,0,6.67,6.67A6.68,6.68,0,0,0,17.6,5Z"/><path class="cls-1" d="M22,18.88a.73.73,0,0,0-.72.73.72.72,0,0,0,.72.72.73.73,0,0,0,.73-.72.73.73,0,0,0-.73-.73Z"/><path class="cls-1" d="M5.57,21.79A2.18,2.18,0,0,0,3.5,23.28h0l-3.39,11a2.17,2.17,0,0,0,2.07,2.85H33a2.17,2.17,0,0,0,2.07-2.85l-3.39-11h0a2.18,2.18,0,0,0-2.07-1.49h-4.9l2.38-3.48a11.62,11.62,0,1,0-19,0l2.37,3.48Zm5.89,1.45,5.26,7.7H7.24l2.41-7.7Zm18,12.49H5.75l1-3.34H28.4Zm-27.86-.3a.72.72,0,0,1-.1-.65v0l3.38-11a.73.73,0,0,1,.69-.49H8.13L4.22,35.73h-2a.73.73,0,0,1-.59-.3Zm28.72-11.7,3.38,11v0a.72.72,0,0,1-.69.95H31L27.06,23.24h2.56a.73.73,0,0,1,.69.49Zm-4.77-.49L28,30.94H18.48l5.25-7.7ZM9.29,17.48a10.16,10.16,0,1,1,16.62,0h0L17.6,29.65,9.29,17.49Z"/><path class="cls-1" d="M20.52,21.26a.72.72,0,0,0-1,.23l-2.54,4a.73.73,0,1,0,1.23.77l2.54-4a.73.73,0,0,0-.23-1Z"/><path class="cls-1" d="M20.06,10.89H18.32V9.16a.73.73,0,1,0-1.45,0v1.73H15.13a.73.73,0,0,0,0,1.46h1.74v1.73a.73.73,0,1,0,1.45,0V12.35h1.74a.73.73,0,0,0,0-1.46Z"/></g></g></svg>