<svg xmlns="http://www.w3.org/2000/svg" viewBox="0 0 37.14 37.18"><defs><style>.cls-1{fill:#ff3e3b;}</style></defs><title>header-hotline</title><g id="Layer_2" data-name="Layer 2"><g id="Layer_1-2" data-name="Layer 1"><path class="cls-1" d="M16.88,28.35a.72.72,0,1,0,1,0,.72.72,0,0,0-1,0Z"/><path class="cls-1" d="M35.51,27.09,30,22.4l-.08-.06a3.6,3.6,0,0,0-4.51.49l-3,3a.73.73,0,0,1-.79.16,19.72,19.72,0,0,1-8.29-6.29,14.89,14.89,0,0,1-2.26-4,.66.66,0,0,0,0-.15.74.74,0,0,1,.15-.8l3-3a3.62,3.62,0,0,0,.5-4.52l0,0-4-5.54A3.64,3.64,0,0,0,5,1.06l-.6.61h0L2.29,3.82C-.27,6.38-.69,10.23,1.08,15A37,37,0,0,0,9.62,27.43a37.2,37.2,0,0,0,12.81,8.7c4.13,1.51,8.52,1.69,11.62-1.41l2-2a3.63,3.63,0,0,0-.57-5.6Zm-6.42-3.55,5.51,4.68.08.06a2.18,2.18,0,0,1,.37,3.38l-.15.15-9.39-7,.91-.92a2.15,2.15,0,0,1,2.67-.32ZM9.45,2.46s0,0,0,0l4,5.53a2.15,2.15,0,0,1-.31,2.69l-.89.89L5.9,2.26l.17-.17a2.18,2.18,0,0,1,3.38.37Zm13.48,32.3A35.58,35.58,0,0,1,10.65,26.4,35.48,35.48,0,0,1,2.44,14.45c-1.09-2.9-1.82-6.91.88-9.61L4.85,3.31l6.36,9.34-1.07,1.08A2.18,2.18,0,0,0,9.64,16,16,16,0,0,0,12,20.37a21.25,21.25,0,0,0,9,7,2.19,2.19,0,0,0,2.38-.47l1-1.06,9.4,7-.84.84c-2.89,2.88-7.09,2.18-10.1,1.07Z"/><path class="cls-1" d="M15.52,26.61c-.77-.67-2.09-1.83-2.79-2.54a49.24,49.24,0,0,1-4.58-5.44.73.73,0,0,0-1-.19.75.75,0,0,0-.19,1,49.81,49.81,0,0,0,4.74,5.62c.73.76,2.07,1.92,2.87,2.63a.73.73,0,1,0,1-1.1Z"/></g></g></svg>